<svg width="174" height="157" viewBox="0 0 174 157" fill="none" xmlns="http://www.w3.org/2000/svg">
<path d="M0 0H174V157H0V0Z" fill="white"/>
<path d="M138.06 24C139.6 24 140.16 25.12 139.46 26.1L100.82 80C109.08 91.34 117.34 102.96 125.6 114.58H99.56L87.94 98.2L61.2 135.58C61.06 135.86 60.22 136 59.94 136H37.54C36.14 136 35.58 134.88 36.42 133.9L74.78 80C66.52 68.66 58.4 57.04 50.14 45.42H76.18L87.94 61.8L114.4 24.42C114.54 24.14 115.38 24 115.66 24H138.06Z" fill="#CCBCF9"/>
<path d="M15.36 34.722V38H7.242C7.11 38 7 37.89 7 37.802V20.598C7 20.51 7.11 20.4 7.242 20.4H15.36V23.59H10.366V27.572H17.274C17.406 27.572 17.516 27.66 17.516 27.77V30.564C17.516 30.652 17.406 30.762 17.274 30.762H10.366V34.722H15.36Z" fill="black"/>
<path d="M34.081 20.4C34.323 20.4 34.411 20.576 34.301 20.73L28.229 29.2C29.527 30.982 30.825 32.808 32.123 34.634H28.031L26.205 32.06L22.003 37.934C21.981 37.978 21.849 38 21.805 38H18.285C18.065 38 17.977 37.824 18.109 37.67L24.137 29.2C22.839 27.418 21.563 25.592 20.265 23.766H24.357L26.205 26.34L30.363 20.466C30.385 20.422 30.517 20.4 30.561 20.4H34.081Z" fill="black"/>
<path d="M41.084 20.4C41.788 20.4 47.024 20.51 47.024 25.68C47.024 30.85 41.502 30.916 41.084 30.916H38.466V37.802C38.466 37.89 38.4 38 38.246 38H35.386C35.276 38 35.166 37.89 35.166 37.802V27.66H41.084C41.524 27.66 43.68 27.616 43.68 25.68C43.68 23.744 41.48 23.634 41.084 23.634H35.166V20.598C35.166 20.51 35.276 20.4 35.386 20.4H41.084Z" fill="black"/>
<path d="M55.987 34.722V38H47.869C47.737 38 47.627 37.89 47.627 37.802V20.598C47.627 20.51 47.737 20.4 47.869 20.4H55.987V23.59H50.993V27.572H57.901C58.033 27.572 58.143 27.66 58.143 27.77V30.564C58.143 30.652 58.033 30.762 57.901 30.762H50.993V34.722H55.987Z" fill="black"/>
<path d="M73.2339 20.4C73.3879 20.4 73.4759 20.51 73.4759 20.598V37.802C73.4759 37.89 73.3879 38 73.2339 38H70.3299C70.2859 38 70.1539 37.978 70.1319 37.934L62.0359 26.34V33.776H58.6699V20.598C58.6699 20.51 58.7799 20.4 58.8899 20.4H61.8159C61.8599 20.4 61.9919 20.422 62.0139 20.466L70.1319 32.06V20.598C70.1319 20.51 70.2419 20.4 70.3959 20.4H73.2339Z" fill="black"/>
<path d="M82.2986 28.232C84.1466 29.09 85.1586 30.806 85.1586 32.874C85.1586 36.174 82.5186 38 79.7026 38C79.7026 38 79.7026 38 79.6806 38V34.832C79.7026 34.832 79.7026 34.832 79.7026 34.832C80.8686 34.832 81.9026 34.04 81.9026 32.874C81.9026 31.576 80.6926 30.784 79.7026 30.74C79.5486 30.74 78.3606 30.74 77.0846 30.146C75.2586 29.31 74.2246 27.748 74.2246 25.702C74.2246 22.402 76.8866 20.4 79.7026 20.4C82.7166 20.4 85.0486 22.424 85.0926 25.416C85.1146 25.482 85.0046 25.592 84.8506 25.592H82.1006C81.9686 25.592 81.8586 25.482 81.8586 25.416C81.8146 24.162 80.8466 23.568 79.7026 23.568C78.4926 23.568 77.5026 24.294 77.5026 25.702C77.5026 26.978 78.5806 27.638 79.7026 27.638C79.8126 27.638 81.0446 27.638 82.2986 28.232Z" fill="black"/>
<path d="M94.0788 34.722V38H85.9607C85.8287 38 85.7188 37.89 85.7188 37.802V20.598C85.7188 20.51 85.8287 20.4 85.9607 20.4H94.0788V23.59H89.0847V27.572H95.9928C96.1248 27.572 96.2347 27.66 96.2347 27.77V30.564C96.2347 30.652 96.1248 30.762 95.9928 30.762H89.0847V34.722H94.0788Z" fill="black"/>
<path d="M79.63 124.78H82.974V135.802C82.974 135.89 82.864 136 82.71 136H79.872C79.718 136 79.63 135.89 79.63 135.802V124.78ZM76.242 121.414C76.11 121.414 76 121.326 76 121.216V118.598C76 118.51 76.11 118.4 76.242 118.4H86.34C86.494 118.4 86.582 118.51 86.582 118.598V121.216C86.582 121.326 86.494 121.414 86.34 121.414H76.242Z" fill="black"/>
<path d="M99.1194 135.714C99.1854 135.868 99.0974 136 98.9214 136H95.7754C95.7094 136 95.5774 135.934 95.5554 135.868L92.3434 128.894H90.4514V135.802C90.4514 135.89 90.3414 136 90.2094 136H87.3274C87.2174 136 87.1074 135.89 87.1074 135.802V125.66H93.0254C93.7514 125.66 95.6214 125.572 95.6214 123.636C95.6214 121.7 93.5534 121.59 93.0254 121.59H87.1074V118.598C87.1074 118.51 87.2174 118.4 87.3274 118.4H93.0254C94.0154 118.4 98.9654 118.444 98.9654 123.636C98.9654 126.32 97.4914 127.728 95.7314 128.366C96.8314 130.852 98.0194 133.272 99.1194 135.714Z" fill="black"/>
<path d="M113.578 135.736C113.644 135.868 113.534 136 113.38 136H110.344C110.278 136 110.168 135.956 110.146 135.868L106.67 126.056L103.238 135.868C103.216 135.956 103.106 136 103.018 136H100.004C99.8057 136 99.7177 135.868 99.7837 135.736L106.45 118.532C106.516 118.356 106.824 118.356 106.89 118.532L113.578 135.736Z" fill="black"/>
<path d="M124.339 132.766H127.705V135.802C127.705 135.89 127.617 136 127.463 136H124.603C120.225 136 114.285 134.724 114.285 127.2C114.285 119.39 120.291 118.4 124.603 118.4H127.463C127.617 118.4 127.705 118.51 127.705 118.598V125.506H124.339V121.612C120.511 121.414 117.673 123.02 117.673 127.2C117.673 132.634 122.205 132.854 124.339 132.766Z" fill="black"/>
<path d="M142.415 135.67C142.547 135.846 142.437 136 142.217 136H138.433C138.389 136 138.257 135.956 138.235 135.934L133.109 129.598C132.669 130.06 128.379 134.922 128.379 134.922V118.598C128.379 118.51 128.489 118.4 128.621 118.4H131.525C131.657 118.4 131.745 118.51 131.745 118.598V126.606L138.367 118.466C138.389 118.444 138.521 118.4 138.565 118.4H142.151C142.393 118.4 142.503 118.576 142.349 118.73L135.353 127.354L142.415 135.67Z" fill="black"/>
<path d="M151.542 132.722V136H143.424C143.292 136 143.182 135.89 143.182 135.802V118.598C143.182 118.51 143.292 118.4 143.424 118.4H151.542V121.59H146.548V125.572H153.456C153.588 125.572 153.698 125.66 153.698 125.77V128.564C153.698 128.652 153.588 128.762 153.456 128.762H146.548V132.722H151.542Z" fill="black"/>
<path d="M166.237 135.714C166.303 135.868 166.215 136 166.039 136H162.893C162.827 136 162.695 135.934 162.673 135.868L159.461 128.894H157.569V135.802C157.569 135.89 157.459 136 157.327 136H154.445C154.335 136 154.225 135.89 154.225 135.802V125.66H160.143C160.869 125.66 162.739 125.572 162.739 123.636C162.739 121.7 160.671 121.59 160.143 121.59H154.225V118.598C154.225 118.51 154.335 118.4 154.445 118.4H160.143C161.133 118.4 166.083 118.444 166.083 123.636C166.083 126.32 164.609 127.728 162.849 128.366C163.949 130.852 165.137 133.272 166.237 135.714Z" fill="black"/>
<path d="M32 11C32 9.34315 33.3431 8 35 8H133C134.657 8 136 9.34315 136 11C136 12.6569 134.657 14 133 14H35C33.3431 14 32 12.6569 32 11Z" fill="#7F57F1"/>
<path d="M30 145C30 143.343 31.3431 142 33 142H131C132.657 142 134 143.343 134 145C134 146.657 132.657 148 131 148H33C31.3431 148 30 146.657 30 145Z" fill="#7F57F1"/>
<path d="M133.06 19C134.6 19 135.16 20.12 134.46 21.1L95.82 75C104.08 86.34 112.34 97.96 120.6 109.58H94.56L82.94 93.2L56.2 130.58C56.06 130.86 55.22 131 54.94 131H32.54C31.14 131 30.58 129.88 31.42 128.9L69.78 75C61.52 63.66 53.4 52.04 45.14 40.42H71.18L82.94 56.8L109.4 19.42C109.54 19.14 110.38 19 110.66 19H133.06Z" fill="#7F57F1"/>
</svg>
